<?xml version="1.0" encoding="UTF-8" standalone="no"?>
<svg
   xmlns:dc="http://purl.org/dc/elements/1.1/"
   xmlns:cc="http://creativecommons.org/ns#"
   xmlns:rdf="http://www.w3.org/1999/02/22-rdf-syntax-ns#"
   xmlns:svg="http://www.w3.org/2000/svg"
   xmlns="http://www.w3.org/2000/svg"
   xmlns:xlink="http://www.w3.org/1999/xlink"
   xmlns:sodipodi="http://sodipodi.sourceforge.net/DTD/sodipodi-0.dtd"
   xmlns:inkscape="http://www.inkscape.org/namespaces/inkscape"
   version="1.1"
   x="0px"
   y="0px"
   width="86px"
   height="86px"
   viewBox="0 0 86 86"
   enable-background="new 0 0 86 86"
   xml:space="preserve"
   id="svg22"
   sodipodi:docname="channel.svg"
   inkscape:version="1.0.1 (3bc2e813f5, 2020-09-07)"><metadata
   id="metadata28"><rdf:RDF><cc:Work
       rdf:about=""><dc:format>image/svg+xml</dc:format><dc:type
         rdf:resource="http://purl.org/dc/dcmitype/StillImage" /><dc:title /></cc:Work></rdf:RDF></metadata><defs
   id="defs26"><linearGradient
   inkscape:collect="always"
   id="linearGradient851"><stop
     style="stop-color:#ffffff;stop-opacity:1"
     offset="0"
     id="stop847" /><stop
     style="stop-color:#ffffff;stop-opacity:0.80000001"
     offset="1"
     id="stop849" /></linearGradient>
	
		<radialGradient
   id="SVGID_1_"
   cx="43.2205"
   cy="43.2344"
   r="42.7984"
   gradientTransform="matrix(0.9977,0,0,0.9977,-0.1211,-0.135)"
   gradientUnits="userSpaceOnUse">
		<stop
   offset="0"
   style="stop-color:#00acc1;stop-opacity:1"
   id="stop3" />
		<stop
   offset="1"
   style="stop-color:#26c6da;stop-opacity:1"
   id="stop5" />
	</radialGradient>
	
	
	
		<linearGradient
   id="SVGID_2_"
   gradientUnits="userSpaceOnUse"
   x1="16.9061"
   y1="80.0942"
   x2="69.0939"
   y2="27.9064"
   gradientTransform="translate(0,-3e-4)">
		<stop
   offset="0"
   style="stop-color:#ffffff;stop-opacity:1"
   id="stop12" />
		<stop
   offset="1"
   style="stop-color:#ececec;stop-opacity:1"
   id="stop14" />
	</linearGradient>
	
	
<radialGradient
   inkscape:collect="always"
   xlink:href="#linearGradient851"
   id="radialGradient853"
   cx="43"
   cy="44.199195"
   fx="43"
   fy="44.199195"
   r="31.900391"
   gradientTransform="matrix(1,0,0,0.97802071,0,0.97146703)"
   gradientUnits="userSpaceOnUse" /></defs><sodipodi:namedview
   pagecolor="#ffffff"
   bordercolor="#666666"
   borderopacity="1"
   objecttolerance="10"
   gridtolerance="10"
   guidetolerance="10"
   inkscape:pageopacity="0"
   inkscape:pageshadow="2"
   inkscape:window-width="1920"
   inkscape:window-height="1005"
   id="namedview24"
   showgrid="true"
   inkscape:zoom="4.8009368"
   inkscape:cx="89.967731"
   inkscape:cy="22.299743"
   inkscape:window-x="0"
   inkscape:window-y="0"
   inkscape:window-maximized="1"
   inkscape:current-layer="svg22"
   inkscape:document-rotation="0"><inkscape:grid
     type="xygrid"
     id="grid887" /></sodipodi:namedview>
<g
   id="Layer_2"
   display="none">
</g>

<path
   id="path899"
   style="color:#000000;font-style:normal;font-variant:normal;font-weight:normal;font-stretch:normal;font-size:medium;line-height:normal;font-family:sans-serif;font-variant-ligatures:normal;font-variant-position:normal;font-variant-caps:normal;font-variant-numeric:normal;font-variant-alternates:normal;font-variant-east-asian:normal;font-feature-settings:normal;font-variation-settings:normal;text-indent:0;text-align:start;text-decoration:none;text-decoration-line:none;text-decoration-style:solid;text-decoration-color:#000000;letter-spacing:normal;word-spacing:normal;text-transform:none;writing-mode:lr-tb;direction:ltr;text-orientation:mixed;dominant-baseline:auto;baseline-shift:baseline;text-anchor:start;white-space:normal;shape-padding:0;shape-margin:0;inline-size:0;clip-rule:nonzero;display:inline;overflow:visible;visibility:visible;opacity:1;isolation:auto;mix-blend-mode:normal;color-interpolation:sRGB;color-interpolation-filters:linearRGB;solid-color:#000000;solid-opacity:1;vector-effect:none;fill:url(#radialGradient853);fill-opacity:1;fill-rule:nonzero;stroke:none;stroke-width:4;stroke-linecap:round;stroke-linejoin:miter;stroke-miterlimit:4;stroke-dasharray:none;stroke-dashoffset:0;stroke-opacity:1;color-rendering:auto;image-rendering:auto;shape-rendering:auto;text-rendering:auto;enable-background:accumulate;stop-color:#000000;stop-opacity:1"
   d="m 64.986328,13 a 2,2 0 0 0 -1.251953,0.451172 L 43.134766,30.306641 31.414062,18.585938 a 2,2 0 0 0 -2.828124,0 2,2 0 0 0 0,2.828124 l 11.1875,11.1875 H 12.990234 c -1.044,10e-7 -1.890625,0.851344 -1.890625,1.902344 v 38.992188 c 0,1.05 0.846625,1.902344 1.890625,1.902344 h 60.019532 c 1.044,0 1.890625,-0.851344 1.890625,-1.902344 V 34.503906 c 0,-1.05 -0.846625,-1.902344 -1.890625,-1.902344 H 46.644531 L 66.265625,16.548828 A 2,2 0 0 0 66.548828,13.734375 2,2 0 0 0 64.986328,13 Z M 24.632812,36 h 26.933594 c 5.835509,0 10.533203,4.697694 10.533203,10.533203 V 61.466797 C 62.099609,67.302306 57.401915,72 51.566406,72 H 24.632812 C 18.797303,72 14.099609,67.302306 14.099609,61.466797 V 46.533203 C 14.099609,40.697694 18.797303,36 24.632812,36 Z m 43.859376,9 a 3,3 0 0 1 0.05273,0 3,3 0 0 1 3,3 3,3 0 0 1 -3,3 3,3 0 0 1 -3,-3 3,3 0 0 1 2.947266,-3 z m 0,12 a 3,3 0 0 1 0.05273,0 3,3 0 0 1 3,3 3,3 0 0 1 -3,3 3,3 0 0 1 -3,-3 3,3 0 0 1 2.947266,-3 z" /></svg>
