<?xml version="1.0" encoding="UTF-8" standalone="no"?>
<svg
   xmlns:dc="http://purl.org/dc/elements/1.1/"
   xmlns:cc="http://creativecommons.org/ns#"
   xmlns:rdf="http://www.w3.org/1999/02/22-rdf-syntax-ns#"
   xmlns:svg="http://www.w3.org/2000/svg"
   xmlns="http://www.w3.org/2000/svg"
   xmlns:xlink="http://www.w3.org/1999/xlink"
   xmlns:sodipodi="http://sodipodi.sourceforge.net/DTD/sodipodi-0.dtd"
   xmlns:inkscape="http://www.inkscape.org/namespaces/inkscape"
   version="1.1"
   x="0px"
   y="0px"
   width="86px"
   height="86px"
   viewBox="0 0 86 86"
   enable-background="new 0 0 86 86"
   xml:space="preserve"
   id="svg19"
   sodipodi:docname="harbour-tvhclient2.svg"
   inkscape:version="1.0.1 (3bc2e813f5, 2020-09-07)"><metadata
   id="metadata25"><rdf:RDF><cc:Work
       rdf:about=""><dc:format>image/svg+xml</dc:format><dc:type
         rdf:resource="http://purl.org/dc/dcmitype/StillImage" /></cc:Work></rdf:RDF></metadata><defs
   id="defs23">
	
		<radialGradient
   id="SVGID_1_"
   cx="43.2205"
   cy="43.2221"
   r="42.7984"
   gradientTransform="matrix(0.9977,0,0,0.9977,-0.1211,-0.1227)"
   gradientUnits="userSpaceOnUse">
		<stop
   offset="0"
   style="stop-color:#808080;stop-opacity:1"
   id="stop3" />
		<stop
   offset="1"
   style="stop-color:#b3b3b3;stop-opacity:1"
   id="stop5" />
	</radialGradient>
	
	
	
	
<radialGradient
   id="SVGID_3_"
   cx="26.9526"
   cy="62.667301"
   r="30.3622"
   gradientTransform="matrix(0.21151301,0,0,0.21151301,35.664523,23.345178)"
   gradientUnits="userSpaceOnUse"><stop
     offset="0"
     style="stop-color:#4d4d4d;stop-opacity:1"
     id="stop17" /><stop
     offset="1"
     style="stop-color:#333333;stop-opacity:1"
     id="stop19" /></radialGradient><radialGradient
   inkscape:collect="always"
   xlink:href="#linearGradient4238"
   id="radialGradient4246"
   cx="366.34296"
   cy="473.31711"
   fx="366.34296"
   fy="473.31705"
   r="253.03935"
   gradientTransform="matrix(0.09155952,-9.7130857e-5,1.0465356e-4,0.0963922,21.323418,5.8838732)"
   gradientUnits="userSpaceOnUse" /><linearGradient
   inkscape:collect="always"
   id="linearGradient4238"><stop
     style="stop-color:#333333;stop-opacity:1"
     offset="0"
     id="stop4240" /><stop
     style="stop-color:#4d4d4d;stop-opacity:1"
     offset="1"
     id="stop4242" /></linearGradient></defs><sodipodi:namedview
   pagecolor="#ffffff"
   bordercolor="#666666"
   borderopacity="1"
   objecttolerance="10"
   gridtolerance="10"
   guidetolerance="10"
   inkscape:pageopacity="0"
   inkscape:pageshadow="2"
   inkscape:window-width="1920"
   inkscape:window-height="1005"
   id="namedview21"
   showgrid="false"
   inkscape:zoom="9.8139534"
   inkscape:cx="67.880635"
   inkscape:cy="45.197582"
   inkscape:window-x="0"
   inkscape:window-y="0"
   inkscape:window-maximized="1"
   inkscape:current-layer="svg19"
   inkscape:document-rotation="0" />
<g
   id="Layer_2"
   display="none">
</g>
<path
   fill="url(#SVGID_1_)"
   d="m 85.7,84.277 c 0,0.786 -0.637,1.423 -1.423,1.423 H 1.723 C 0.937,85.7 0.3,85.063 0.3,84.277 V 1.723 C 0.3,0.937 0.937,0.3 1.723,0.3 h 82.553 c 0.786,0 1.423,0.637 1.423,1.423 v 82.554 z"
   id="path8"
   style="fill:url(#SVGID_1_)" /><g
   id="g12"
   style="fill:#dcedc8">
		<path
   fill="#20473e"
   d="m 75.098,62.785 c 0,0.891 -0.852,1.614 -1.902,1.614 H 12.804 c -1.051,0 -1.902,-0.723 -1.902,-1.614 V 11.543 c 0,-0.891 0.852,-1.614 1.902,-1.614 h 60.392 c 1.051,0 1.902,0.723 1.902,1.614 z"
   id="path10"
   style="fill:#dcedc8"
   sodipodi:nodetypes="sssssssss" />
	</g><g
   id="g926"
   transform="matrix(1.5000002,0,0,1.25,-54.324555,-50.135323)"
   style="stroke-width:0.730298"><rect
     style="fill:#ffffff;stroke:none;stroke-width:0.365147;stroke-miterlimit:4;stroke-dasharray:none;stroke-opacity:1"
     id="rect902"
     width="4"
     height="8"
     x="48.88303"
     y="51.308258" /><rect
     style="fill:#ffff00;stroke:none;stroke-width:0.365147;stroke-miterlimit:4;stroke-dasharray:none;stroke-opacity:1"
     id="rect904"
     width="4"
     height="8"
     x="52.88303"
     y="51.308258" /><rect
     style="fill:#18ffff;stroke:none;stroke-width:0.365147;stroke-miterlimit:4;stroke-dasharray:none;stroke-opacity:1"
     id="rect906"
     width="4"
     height="8"
     x="56.88303"
     y="51.308258" /><rect
     style="fill:#00e676;stroke:none;stroke-width:0.365147;stroke-miterlimit:4;stroke-dasharray:none;stroke-opacity:1"
     id="rect908"
     width="4"
     height="8"
     x="60.88303"
     y="51.308258" /><rect
     style="fill:#d500f9;stroke:none;stroke-width:0.365147;stroke-miterlimit:4;stroke-dasharray:none;stroke-opacity:1"
     id="rect910"
     width="4"
     height="8"
     x="64.883026"
     y="51.308258" /><rect
     style="fill:#ff1744;stroke:none;stroke-width:0.365147;stroke-miterlimit:4;stroke-dasharray:none;stroke-opacity:1"
     id="rect912"
     width="4"
     height="8"
     x="68.883026"
     y="51.308258" /><rect
     style="fill:#3d5afe;stroke:none;stroke-width:0.365147;stroke-miterlimit:4;stroke-dasharray:none;stroke-opacity:1"
     id="rect914"
     width="4"
     height="8"
     x="72.883026"
     y="51.308258" /><rect
     style="fill:#333333;stroke:none;stroke-width:0.365147;stroke-miterlimit:4;stroke-dasharray:none;stroke-opacity:1"
     id="rect916"
     width="4"
     height="8"
     x="76.883026"
     y="51.308258" /></g>
<circle
   style="fill:#666666;stroke-width:0.355664"
   id="path35"
   cx="60"
   cy="72"
   r="4" /><circle
   style="fill:#666666;stroke-width:0.355664"
   id="circle37"
   cx="71.098"
   cy="72"
   r="4" /><rect
   style="fill:#666666;stroke-width:0.752115"
   id="rect39"
   width="24"
   height="8"
   x="10.902"
   y="68"
   rx="4"
   ry="4" /><path
   fill="url(#SVGID_3_)"
   d="M 37.665861,37.088521 H 37.24314 c 0,-3.216945 2.607654,-5.824381 5.824382,-5.824381 h 2.17e-4 v 0.422721 h -2.17e-4 c -2.978404,0 -5.401661,2.423256 -5.401661,5.40166 z m -1.2549,0 h 0.422504 c 2.18e-4,-3.437439 2.796617,-6.233838 6.234057,-6.233838 h 2.17e-4 v -0.422722 h -2.17e-4 c -3.676416,0 -6.656561,2.980144 -6.656561,6.65656 z m 6.656561,-7.065799 v 0 L 43.067739,29.6 h -2.17e-4 C 38.931635,29.6 35.579,32.952634 35.579,37.088521 h 0.422722 c 0,-3.89604 3.16976,-7.065799 7.0658,-7.065799 z m 0,3.328062 v 0 c 1.149002,0 2.189063,-0.465776 2.941873,-1.218586 l -0.30008,-0.30008 c -0.676921,0.676919 -1.6113,1.096162 -2.641576,1.096162 v 0 h -2.17e-4 c -2.297787,0 -4.160459,1.862454 -4.160459,4.160241 0,2.29757 1.862672,4.160242 4.160459,4.160242 h 2.17e-4 v -0.422722 h -2.17e-4 c -2.060985,0 -3.737737,-1.676752 -3.737737,-3.737737 0,-2.060767 1.676752,-3.73752 3.737737,-3.73752 z m 2.17e-4,6.645035 v -0.0017 h -2.17e-4 c -1.602167,0 -2.905776,-1.303391 -2.905776,-2.905558 0,-1.602167 1.303609,-2.905776 2.905776,-2.905776 h 2.17e-4 v -0.422722 h -2.17e-4 c -1.838099,0 -3.32828,1.490181 -3.32828,3.328281 0,1.838099 1.490181,3.328062 3.32828,3.328062 h 2.17e-4 v 0.0019 c 1.872022,0 3.426786,1.38363 3.695987,3.181719 0.131993,-0.07502 0.261157,-0.153737 0.38793,-0.236367 -0.370099,-1.918338 -2.057288,-3.367639 -4.083917,-3.367857 z m 0,-7.899717 v 0 0 c -2.757475,0 -4.992637,2.235162 -4.992637,4.992419 0,1.378629 0.558628,2.626571 1.462129,3.530074 l 0.300299,-0.300298 c -0.827396,-0.827612 -1.339924,-1.969874 -1.339924,-3.229776 0,-2.519803 2.050112,-4.569698 4.569698,-4.569698 h 2.18e-4 v 0 c 1.452345,-2.17e-4 2.686805,-0.930901 3.141056,-2.227987 -0.128078,-0.05936 -0.25833,-0.114813 -0.390321,-0.167001 -0.389452,1.145306 -1.47496,1.972049 -2.750518,1.972267 z"
   id="path22"
   style="fill:url(#SVGID_3_);stroke-width:0.21745" /><g
   id="g886"><circle
     style="fill:none;stroke:#333333;stroke-width:0.5;stroke-miterlimit:4;stroke-dasharray:none;stroke-opacity:1"
     id="path55"
     cx="43"
     cy="37.164001"
     r="9.75" /><path
     style="fill:none;stroke:#000000;stroke-width:0.5;stroke-linecap:butt;stroke-linejoin:miter;stroke-miterlimit:4;stroke-dasharray:none;stroke-opacity:1"
     d="M 10.902,37.164 H 33.200124"
     id="path882"
     sodipodi:nodetypes="cc" /></g><circle
   style="fill:none;stroke:#333333;stroke-width:0.5;stroke-miterlimit:4;stroke-dasharray:none;stroke-opacity:1"
   id="circle888"
   cx="43"
   cy="37.164001"
   r="9.75" /><path
   style="fill:none;stroke:#333333;stroke-width:0.5;stroke-linecap:butt;stroke-linejoin:miter;stroke-miterlimit:4;stroke-dasharray:none;stroke-opacity:1"
   d="M 10.902,37.164 H 33.200124"
   id="path890"
   sodipodi:nodetypes="cc" /><path
   style="fill:none;stroke:#333333;stroke-width:0.5;stroke-linecap:butt;stroke-linejoin:miter;stroke-miterlimit:4;stroke-dasharray:none;stroke-opacity:1"
   d="M 52.799876,37.164 H 75.098"
   id="path896"
   sodipodi:nodetypes="cc" /><path
   style="fill:none;stroke:#333333;stroke-width:0.5;stroke-linecap:butt;stroke-linejoin:miter;stroke-miterlimit:4;stroke-dasharray:none;stroke-opacity:1"
   d="M 43,9.929 V 27.427"
   id="path898"
   sodipodi:nodetypes="cc" /><path
   style="fill:none;stroke:#333333;stroke-width:0.5;stroke-linecap:butt;stroke-linejoin:miter;stroke-miterlimit:4;stroke-dasharray:none;stroke-opacity:1"
   d="M 43,46.901 V 64.399"
   id="path900"
   sodipodi:nodetypes="cc" /><text
   xml:space="preserve"
   style="font-style:normal;font-weight:normal;font-size:8px;line-height:1.25;font-family:sans-serif;fill:#1a1a1a;fill-opacity:1;stroke:none"
   x="14.820312"
   y="54.503906"
   id="text930"><tspan
     sodipodi:role="line"
     id="tspan928"
     x="14.820312"
     y="54.503906">TVH</tspan></text><g
   id="g1012"
   transform="translate(0,1.3007645)"><rect
     style="fill:#333333;stroke:none;stroke-width:0.5;stroke-miterlimit:4;stroke-dasharray:none;stroke-opacity:1"
     id="rect932"
     width="4"
     height="4"
     x="15"
     y="55.699234" /><rect
     style="fill:#333333;stroke:none;stroke-width:0.5;stroke-miterlimit:4;stroke-dasharray:none;stroke-opacity:1"
     id="rect936"
     width="4"
     height="4"
     x="23"
     y="55.699234" /><rect
     style="fill:#333333;stroke:none;stroke-width:0.5;stroke-miterlimit:4;stroke-dasharray:none;stroke-opacity:1"
     id="rect940"
     width="4"
     height="4"
     x="31"
     y="55.699234" /><rect
     style="fill:#333333;stroke:none;stroke-width:0.5;stroke-miterlimit:4;stroke-dasharray:none;stroke-opacity:1"
     id="rect944"
     width="4"
     height="4"
     x="39"
     y="55.699234" /></g><g
   id="g1034"><path
     style="fill:#4d4d4d;stroke:#333333;stroke-width:0.999999px;stroke-linecap:butt;stroke-linejoin:miter;stroke-opacity:1"
     d="m 66,40.499999 h 6"
     id="path946" /><path
     style="fill:#4d4d4d;stroke:#333333;stroke-width:0.999999px;stroke-linecap:butt;stroke-linejoin:miter;stroke-opacity:1"
     d="m 66,42.499999 h 6"
     id="path948" /><path
     style="fill:#4d4d4d;stroke:#333333;stroke-width:0.999999px;stroke-linecap:butt;stroke-linejoin:miter;stroke-opacity:1"
     d="m 66,44.499999 h 6"
     id="path950" /><path
     style="fill:#4d4d4d;stroke:#333333;stroke-width:0.999999px;stroke-linecap:butt;stroke-linejoin:miter;stroke-opacity:1"
     d="m 66,46.499999 h 6"
     id="path952" /><path
     style="fill:#4d4d4d;stroke:#333333;stroke-width:0.999999px;stroke-linecap:butt;stroke-linejoin:miter;stroke-opacity:1"
     d="m 66,48.499999 h 6"
     id="path954" /><path
     style="fill:#4d4d4d;stroke:#333333;stroke-width:0.999999px;stroke-linecap:butt;stroke-linejoin:miter;stroke-opacity:1"
     d="m 66,50.499999 h 6"
     id="path956" /><path
     style="fill:#4d4d4d;stroke:#333333;stroke-width:0.999999px;stroke-linecap:butt;stroke-linejoin:miter;stroke-opacity:1"
     d="m 66,52.499999 h 6"
     id="path958" /><path
     style="fill:#4d4d4d;stroke:#333333;stroke-width:0.999999px;stroke-linecap:butt;stroke-linejoin:miter;stroke-opacity:1"
     d="m 66,54.499999 h 6"
     id="path960" /><path
     style="fill:#4d4d4d;stroke:#333333;stroke-width:0.999999px;stroke-linecap:butt;stroke-linejoin:miter;stroke-opacity:1"
     d="m 66,56.499999 h 6"
     id="path962" /><path
     style="fill:#4d4d4d;stroke:#333333;stroke-width:0.999999px;stroke-linecap:butt;stroke-linejoin:miter;stroke-opacity:1"
     d="m 66,56.499999 h 6"
     id="path964" /><path
     style="fill:#4d4d4d;stroke:#333333;stroke-width:0.999999px;stroke-linecap:butt;stroke-linejoin:miter;stroke-opacity:1"
     d="m 66,58.499999 h 6"
     id="path966" /><path
     style="fill:#1a1a1a;stroke:#333333;stroke-width:0.999999px;stroke-linecap:butt;stroke-linejoin:miter;stroke-opacity:1"
     d="m 66,60.499999 h 6"
     id="path968" /></g><ellipse
   style="fill:none;stroke:#333333;stroke-width:0.500001;stroke-miterlimit:4;stroke-dasharray:none;stroke-opacity:1"
   id="path970"
   cx="55"
   cy="53.999996"
   rx="6.7499995"
   ry="6.75" /><path
   style="display:inline;fill:url(#radialGradient4246);fill-opacity:1;stroke:none;stroke-width:1.06667;stroke-linecap:butt;stroke-linejoin:miter;stroke-miterlimit:4;stroke-dasharray:none;stroke-dashoffset:2;stroke-opacity:1"
   d="m 54.989312,48.999982 v 2e-4 c -1.799042,0.0075 -3.459458,0.958908 -4.359516,2.499808 -0.903633,1.547 -0.803633,4.579766 0.1,6.126765 0.2259,0.38675 0.914358,-3.264882 0.571608,-4.135999 -0.05667,-0.144008 0.144742,0.246409 0.76265,0.775942 -0.05125,0.177816 0.02542,0.393725 0.193183,0.544308 0.208367,0.186775 0.496333,0.220425 0.668383,0.07808 0.2015,0.1231 0.423809,0.24595 0.669942,0.364675 0.272541,0.13145 -0.336017,0.139467 -0.8727,-0.0435 -0.536675,-0.183 -1.141483,-0.5768 -1.141483,-0.5768 0.0042,1.617975 1.284183,4.365316 3.275449,4.36655 l -0.103725,-0.57825 c 0,0 -0.40295,-0.067 -0.905608,-0.652367 -0.473225,-0.5511 -0.435408,-0.858541 -0.427166,-0.9015 0.422124,0.502908 0.873158,1.14715 1.579649,1.157942 0.66605,-8.34e-4 1.170775,-0.55885 1.5797,-1.157942 0.0083,0.04292 0.04608,0.3504 -0.427183,0.9015 -0.502659,0.585358 -0.905608,0.652367 -0.905608,0.652367 l -0.118784,0.57825 c 2.035642,-8.34e-4 3.286658,-2.748575 3.290508,-4.36655 0,0 -0.604808,0.3938 -1.141492,0.5768 -0.536674,0.183 -1.145208,0.174992 -0.872691,0.0435 0.246133,-0.118725 0.468442,-0.241566 0.669942,-0.364666 0.172049,0.142333 0.460016,0.108683 0.668374,-0.07808 0.167817,-0.150583 0.244442,-0.366491 0.193192,-0.544308 0.617908,-0.529533 0.819317,-0.91995 0.76265,-0.775941 -0.34275,0.871108 0.345708,4.522749 0.5716,4.13599 0.903658,-1.546999 1.003658,-4.579757 0.1,-6.126765 -0.900058,-1.5409 -2.560441,-2.492316 -4.359508,-2.499808 v -1.92e-4 c -0.0033,0 -0.0075,7.5e-5 -0.01067,7.5e-5 -0.0033,-8e-6 -0.0075,-7.5e-5 -0.01067,-7.5e-5 z"
   id="path4225"
   inkscape:connector-curvature="0"
   sodipodi:nodetypes="ccssscccsscccscccscccsscccsssccccc"
   inkscape:export-xdpi="180"
   inkscape:export-ydpi="180"
   inkscape:export-filename="/home/sam/Develop/GAMEDEV/GAMES/AlienStrike/art/splash/logo.png" /><path
   style="fill:#1a1a1a;stroke:#333333;stroke-width:0.999996px;stroke-linecap:butt;stroke-linejoin:miter;stroke-opacity:1"
   d="m 29.499999,41 v 4"
   id="path1042" /><path
   style="fill:#1a1a1a;stroke:#333333;stroke-width:0.999996px;stroke-linecap:butt;stroke-linejoin:miter;stroke-opacity:1"
   d="m 27.499999,41 v 4"
   id="path1044" /><path
   style="fill:#1a1a1a;stroke:#333333;stroke-width:0.999996px;stroke-linecap:butt;stroke-linejoin:miter;stroke-opacity:1"
   d="m 25.499999,41 v 4"
   id="path1046" /><path
   style="fill:#1a1a1a;stroke:#333333;stroke-width:0.999996px;stroke-linecap:butt;stroke-linejoin:miter;stroke-opacity:1"
   d="m 23.499999,41 v 4"
   id="path1048" /><path
   style="fill:#1a1a1a;stroke:#333333;stroke-width:0.999996px;stroke-linecap:butt;stroke-linejoin:miter;stroke-opacity:1"
   d="m 21.499999,41 v 4"
   id="path1050" /><path
   style="fill:#1a1a1a;stroke:#333333;stroke-width:0.999996px;stroke-linecap:butt;stroke-linejoin:miter;stroke-opacity:1"
   d="m 19.499999,41 v 4"
   id="path1052" /><path
   style="fill:#1a1a1a;stroke:#333333;stroke-width:0.999996px;stroke-linecap:butt;stroke-linejoin:miter;stroke-opacity:1"
   d="m 19.499999,41 v 4"
   id="path1054" /><path
   style="fill:#1a1a1a;stroke:#333333;stroke-width:0.999996px;stroke-linecap:butt;stroke-linejoin:miter;stroke-opacity:1"
   d="m 17.499999,41 v 4"
   id="path1056" /><path
   style="fill:#1a1a1a;stroke:#333333;stroke-width:0.999996px;stroke-linecap:butt;stroke-linejoin:miter;stroke-opacity:1"
   d="m 15.499999,41 v 4"
   id="path1058" /></svg>
